
<svg stroke-dasharray="none" shape-rendering="auto"
     xmlns="http://www.w3.org/2000/svg" font-family="&apos;Dialog&apos;"
     width="1047.1324462890625" text-rendering="auto" fill-opacity="1"
     contentScriptType="text/ecmascript" color-interpolation="auto"
     color-rendering="auto" preserveAspectRatio="xMidYMid meet" font-size="12px"
     viewBox="-0.500000 -0.917994 1047.132446 651.417969" fill="black"
     xmlns:xlink="http://www.w3.org/1999/xlink" stroke="black"
     image-rendering="auto" stroke-miterlimit="10" zoomAndPan="magnify"
     version="1.0" stroke-linecap="square" stroke-linejoin="miter"
     contentStyleType="text/css" font-style="normal" height="651.41796875"
     stroke-width="1" stroke-dashoffset="0" font-weight="normal"
     stroke-opacity="1">
    <!--Generated by the Batik Graphics2D SVG Generator-->
    <defs id="genericDefs"/>
    <g>
        <g fill="rgb(228,26,28)" font-size="10px" font-family="monospace"
           stroke="rgb(228,26,28)">
            <circle fill="none" r="5" cx="459.644" cy="231.0711"/>
            <circle fill="none" r="5" cx="494.8289" cy="5"/>
            <circle fill="none" r="5" cx="530.2601" cy="228.5303"/>
            <circle fill="none" r="5" cx="555.1381" cy="217.3199"/>
            <circle fill="none" r="5" cx="578.0758" cy="220.4015"/>
            <circle fill="none" r="5" cx="551.3437" cy="199.5448"/>
            <circle fill="none" r="5" cx="571.76" cy="215.0481"/>
            <circle fill="none" r="5" cx="541.0632" cy="214.5066"/>
            <circle fill="none" r="5" cx="533.1425" cy="207.2146"/>
            <circle fill="none" r="5" cx="602.0094" cy="203.3477"/>
            <circle fill="none" r="5" cx="560.594" cy="227.2343"/>
            <circle fill="none" r="5" cx="612.6186" cy="194.3332"/>
            <circle fill="none" r="5" cx="555.4592" cy="97.1646"/>
            <circle fill="none" r="5" cx="534.7552" cy="120.8823"/>
            <circle fill="none" r="5" cx="552.8643" cy="119.3733"/>
            <circle fill="none" r="5" cx="645" cy="54.7273"/>
            <circle fill="none" r="5" cx="507.1067" cy="95.0604"/>
            <circle fill="none" r="5" cx="590.8652" cy="58.9982"/>
            <circle fill="none" r="5" cx="545.6731" cy="75.3858"/>
            <circle fill="none" r="5" cx="552.6275" cy="95.8205"/>
            <circle fill="none" r="5" cx="563.3428" cy="98.4708"/>
            <circle fill="none" r="5" cx="573.552" cy="81.3067"/>
            <circle fill="none" r="5" cx="556.6156" cy="204.2014"/>
            <circle fill="none" r="5" cx="552.495" cy="199.0376"/>
            <circle fill="none" r="5" cx="558.0381" cy="234.2036"/>
            <circle fill="none" r="5" cx="597.9987" cy="196.8908"/>
            <circle fill="none" r="5" cx="563.4277" cy="218.8578"/>
            <circle fill="none" r="5" cx="552.5237" cy="196.1934"/>
            <circle fill="none" r="5" cx="537.4581" cy="183.0926"/>
            <circle fill="none" r="5" cx="567.1649" cy="196.6371"/>
            <circle fill="none" r="5" cx="545.6171" cy="190.0951"/>
            <circle fill="none" r="5" cx="581.4692" cy="228.8777"/>
            <circle fill="none" r="5" cx="519.6274" cy="91.7028"/>
            <circle fill="none" r="5" cx="513.56" cy="146.0323"/>
            <circle fill="none" r="5" cx="543.4914" cy="214.1696"/>
            <circle fill="none" r="5" cx="554.8212" cy="208.782"/>
            <circle fill="none" r="5" cx="604.6073" cy="138.8862"/>
            <circle fill="none" r="5" cx="66.9652" cy="201.5587"
                    stroke="rgb(77,175,74)"/>
            <circle fill="none" r="5" cx="513.7974" cy="346.3232"/>
            <circle fill="none" r="5" cx="570.6001" cy="514.6356"/>
            <circle fill="none" r="5" cx="635.3105" cy="645"
                    stroke="rgb(55,126,184)"/>
            <circle fill="none" r="5" cx="488.1185" cy="310.49"/>
            <circle fill="none" r="5" cx="495.4952" cy="240.4873"/>
            <circle fill="none" r="5" cx="97.2647" cy="236.7792"
                    stroke="rgb(77,175,74)"/>
            <circle fill="none" r="5" cx="5" cy="215.2346"
                    stroke="rgb(77,175,74)"/>
            <circle fill="none" r="5" cx="104.642" cy="175.2629"
                    stroke="rgb(77,175,74)"/>
            <circle fill="none" r="5" cx="114.8599" cy="197.0666"
                    stroke="rgb(77,175,74)"/>
            <circle fill="none" r="5" cx="655" cy="5" stroke="rgb(77,175,74)"/>
            <text fill="rgb(77,175,74)" x="665" xml:space="preserve" y="6.3281"
                  stroke="none">{ 13_Xiao_10_rpr, 13_Xiao_6_rpr, 13_Xiao_7_rpr, 13_Xiao_8_rpr...</text><path fill="none"
                  d="M5 215.2346 L104.642 175.2629 M104.642 175.2629 L114.8599 197.0666 M114.8599 197.0666 L97.2647 236.7792 M97.2647 236.7792 L5 215.2346"
                  stroke="rgb(77,175,74)"/>
            <circle fill="none" r="5" cx="655" cy="16.3281"/>
            <text x="665" xml:space="preserve" y="17.6562" stroke="none">{ 13_0_solution_4XW7_rpr, 13_Adamiak_1_rpr, 13_Bujnicki_10_rp...</text><path fill="none"
                  d="M459.644 231.0711 L494.8289 5 M494.8289 5 L645 54.7273 M645 54.7273 L570.6001 514.6356 M570.6001 514.6356 L488.1185 310.49 M488.1185 310.49 L459.644 231.0711"/>
            <circle fill="none" r="5" cx="655" cy="27.6562"
                    stroke="rgb(55,126,184)"/>
            <text fill="rgb(55,126,184)" x="665" xml:space="preserve"
                  y="28.9844" stroke="none">{ 13_Xiao_3_rpr }</text>
        </g>
    </g>
</svg>